<svg width="192" height="35" viewBox="0 0 192 35" fill="none" xmlns="http://www.w3.org/2000/svg">
<path d="M41.6648 6.17326H51.4268C53.564 6.12967 55.6817 6.58651 57.6108 7.50727C59.333 8.33682 60.7817 9.64217 61.7856 11.269C62.7609 12.9916 63.2735 14.9373 63.2735 16.9169C63.2735 18.8964 62.7609 20.8422 61.7856 22.5648C60.7817 24.1916 59.333 25.4969 57.6108 26.3265C55.6812 27.246 53.5638 27.7028 51.4268 27.6605H41.6648V6.17326ZM51.1811 23.5775C53.3288 23.5775 55.0391 22.9789 56.3119 21.7817C57.5847 20.5845 58.2238 18.9643 58.2292 16.9209C58.2292 14.8758 57.5901 13.2556 56.3119 12.0602C55.0337 10.8648 53.3234 10.2662 51.1811 10.2644H46.6363V23.5883L51.1811 23.5775Z" fill="#1E1F1D"/>
<path d="M82.7678 20.7528H70.273C70.4707 21.7388 71.0427 22.6099 71.8689 23.1831C72.7933 23.8025 73.8895 24.1144 75.0014 24.0743C75.7809 24.0882 76.5563 23.9582 77.2887 23.6908C77.982 23.415 78.6129 23.0027 79.1439 22.4783L81.6931 25.2409C80.1376 27.0213 77.8657 27.9116 74.8772 27.9116C73.1677 27.9477 71.474 27.5775 69.9354 26.8314C68.5645 26.161 67.4139 25.1125 66.6193 23.8096C65.8317 22.4821 65.4279 20.9621 65.4527 19.4188C65.4323 17.8828 65.831 16.3704 66.6058 15.0441C67.3586 13.7584 68.4532 12.7067 69.768 12.0061C71.1404 11.297 72.6613 10.9231 74.206 10.9152C75.7508 10.9072 77.2754 11.2653 78.6551 11.9602C79.9485 12.6415 81.0189 13.68 81.739 14.9523C82.508 16.3355 82.8949 17.8986 82.8596 19.4809C82.8596 19.5268 82.8299 19.9561 82.7678 20.7528ZM71.5611 15.4437C70.8106 16.0831 70.3285 16.9817 70.2109 17.9605H78.3472C78.2221 16.9879 77.7411 16.0961 76.997 15.4572C76.2403 14.8281 75.2804 14.496 74.2966 14.5229C73.3034 14.489 72.3316 14.8162 71.5611 15.4437Z" fill="#1E1F1D"/>
<path d="M102.138 11.1445L95.1682 27.6603H90.2265L83.2891 11.1445H88.2309L92.8054 22.381L97.5338 11.1445H102.138Z" fill="#1E1F1D"/>
<path d="M104.101 4.88232H108.892V27.6604H104.101V4.88232Z" fill="#1E1F1D"/>
<path d="M113.588 8.07434C113.326 7.83121 113.118 7.53679 112.975 7.20946C112.832 6.88214 112.759 6.52894 112.759 6.17189C112.759 5.81485 112.832 5.46164 112.975 5.13432C113.118 4.80699 113.326 4.51257 113.588 4.26945C114.18 3.74099 114.955 3.46566 115.748 3.50253C116.535 3.46517 117.307 3.72765 117.908 4.23704C118.173 4.46418 118.385 4.74706 118.528 5.06544C118.67 5.38382 118.741 5.72983 118.735 6.07873C118.745 6.44877 118.677 6.81678 118.534 7.15845C118.392 7.50013 118.178 7.8077 117.908 8.06084C117.304 8.5624 116.544 8.83695 115.759 8.83695C114.974 8.83695 114.213 8.5624 113.609 8.06084L113.588 8.07434ZM113.342 11.1447H118.132V27.6605H113.342V11.1447Z" fill="#1E1F1D"/>
<path d="M139.612 11.1442V24.8975C139.612 27.9255 138.824 30.1759 137.249 31.6485C135.674 33.1212 133.371 33.8575 130.341 33.8575C128.807 33.8656 127.279 33.6695 125.796 33.2742C124.512 32.9568 123.305 32.3857 122.245 31.5945L124.136 28.1569C124.92 28.7765 125.815 29.2403 126.774 29.5233C127.805 29.8553 128.882 30.0256 129.966 30.0283C131.624 30.0283 132.847 29.6547 133.636 28.9076C134.424 28.1605 134.818 27.0299 134.818 25.5159V24.8111C133.569 26.1829 131.829 26.8679 129.598 26.8661C128.151 26.8823 126.723 26.54 125.44 25.8696C124.203 25.2256 123.167 24.2541 122.445 23.0612C121.721 21.7889 121.34 20.3502 121.34 18.8863C121.34 17.4225 121.721 15.9838 122.445 14.7115C123.167 13.5186 124.203 12.547 125.44 11.9031C126.722 11.2306 128.151 10.8872 129.598 10.9039C131.995 10.9039 133.817 11.6915 135.064 13.2668V11.1496L139.612 11.1442ZM133.671 21.8109C134.447 21.0328 134.883 19.9786 134.883 18.8796C134.883 17.7805 134.447 16.7264 133.671 15.9483C132.817 15.1848 131.699 14.783 130.554 14.8276C129.406 14.7848 128.285 15.1862 127.425 15.9483C127.035 16.3308 126.726 16.787 126.515 17.2903C126.304 17.7936 126.196 18.3339 126.196 18.8796C126.196 19.4253 126.304 19.9656 126.515 20.4689C126.726 20.9721 127.035 21.4284 127.425 21.8109C128.284 22.5742 129.406 22.9758 130.554 22.9316C131.699 22.9776 132.817 22.5756 133.671 21.8109Z" fill="#1E1F1D"/>
<path d="M159.055 12.7405C160.315 13.9683 160.945 15.7902 160.945 18.2062V27.6577H156.165V18.9434C156.165 17.6346 155.879 16.6571 155.307 16.0108C154.734 15.3645 153.905 15.0422 152.819 15.044C151.613 15.044 150.651 15.4176 149.933 16.1647C149.217 16.91 148.853 18.0226 148.853 19.4943V27.6604H144.07V4.88232H148.861V12.8648C149.513 12.218 150.298 11.7204 151.161 11.4065C152.105 11.0611 153.103 10.8891 154.108 10.8989C156.155 10.8989 157.804 11.5128 159.055 12.7405Z" fill="#1E1F1D"/>
<path d="M175.935 26.8613C175.414 27.2325 174.825 27.4985 174.201 27.6444C173.495 27.8246 172.77 27.9153 172.041 27.9145C170.077 27.9145 168.558 27.4131 167.483 26.4103C166.408 25.4076 165.868 23.9341 165.863 21.9898V15.1982H163.316V11.5148H165.863V7.49121H170.667V11.5148H174.779V15.1982H170.667V21.9196C170.627 22.5096 170.821 23.0917 171.207 23.5398C171.406 23.7356 171.644 23.8873 171.905 23.985C172.167 24.0827 172.446 24.1242 172.724 24.1069C173.42 24.1279 174.102 23.9117 174.658 23.4939L175.935 26.8613Z" fill="#1E1F1D"/>
<path d="M180.172 27.3981C179.066 27.1456 178.008 26.7161 177.04 26.1262L178.635 22.6832C179.465 23.1954 180.365 23.5838 181.306 23.8363C182.304 24.1265 183.337 24.2765 184.377 24.2819C186.402 24.2819 187.415 23.7805 187.415 22.7777C187.415 22.306 187.138 21.9676 186.586 21.7624C185.757 21.4998 184.904 21.3252 184.039 21.2412C182.909 21.0831 181.791 20.8476 180.693 20.5364C179.82 20.2738 179.032 19.7868 178.406 19.1241C177.761 18.449 177.439 17.4867 177.439 16.2373C177.426 15.2366 177.744 14.2597 178.344 13.4586C179.028 12.5919 179.944 11.9366 180.985 11.5683C182.297 11.0924 183.686 10.8635 185.081 10.8932C186.254 10.8948 187.423 11.0233 188.568 11.2766C189.574 11.4777 190.542 11.8348 191.438 12.3352L189.84 15.7485C188.387 14.9312 186.745 14.5085 185.079 14.5225C184.056 14.5225 183.289 14.6657 182.778 14.9519C182.265 15.2381 182.011 15.6054 182.011 16.0564C182.011 16.5677 182.287 16.9277 182.84 17.1365C183.699 17.4126 184.583 17.6078 185.478 17.7198C186.597 17.8927 187.705 18.1335 188.794 18.4408C189.653 18.6967 190.428 19.1789 191.036 19.837C191.678 20.5085 192 21.4482 192 22.6562C192.008 23.6447 191.679 24.6065 191.068 25.3836C190.366 26.244 189.434 26.8881 188.381 27.2415C187.035 27.7077 185.617 27.9308 184.193 27.9004C182.837 27.9036 181.486 27.7348 180.172 27.3981Z" fill="#1E1F1D"/>
<path d="M17.2827 0H0V34.5654H17.2827C21.8663 34.5654 26.2623 32.7445 29.5034 29.5034C32.7445 26.2623 34.5654 21.8663 34.5654 17.2827C34.5654 12.699 32.7445 8.30311 29.5034 5.06198C26.2623 1.82085 21.8663 0 17.2827 0ZM24.7061 19.7428L16.5779 29.1402C16.1801 29.601 15.6915 29.9747 15.1426 30.238C14.5937 30.5013 13.9964 30.6484 13.388 30.6702C12.7797 30.692 12.1734 30.588 11.6071 30.3647C11.0407 30.1414 10.5266 29.8036 10.0969 29.3725C9.68592 28.9617 9.35992 28.474 9.13751 27.9372C8.9151 27.4004 8.80062 26.8251 8.80062 26.244C8.80062 25.663 8.9151 25.0876 9.13751 24.5508C9.35992 24.0141 9.68592 23.5264 10.0969 23.1156L12.7379 20.4719C13.1488 20.0611 13.4748 19.5734 13.6972 19.0366C13.9197 18.4998 14.0341 17.9245 14.0341 17.3434C14.0341 16.7624 13.9197 16.1871 13.6972 15.6503C13.4748 15.1135 13.1488 14.6258 12.7379 14.215L10.0699 11.547C9.65883 11.136 9.33278 10.6481 9.11033 10.1111C8.88788 9.57404 8.77338 8.99847 8.77338 8.41721C8.77338 7.83595 8.88788 7.26038 9.11033 6.72337C9.33278 6.18636 9.65883 5.69842 10.0699 5.28742L10.1671 5.19291C10.5852 4.77459 11.083 4.44439 11.631 4.22183C12.1791 3.99927 12.7661 3.88888 13.3576 3.89719C13.949 3.9055 14.5327 4.03234 15.0743 4.2702C15.6158 4.50807 16.1041 4.85212 16.5104 5.28202L24.5684 13.8099C25.3242 14.6045 25.7579 15.6515 25.7853 16.7478C25.8128 17.844 25.432 18.9114 24.7169 19.7428H24.7061Z" fill="#8E408E"/>
</svg>
